<svg xmlns="http://www.w3.org/2000/svg" width="408" height="420" viewBox="0 0 408 420">
<g>
<path d="M 325.00 132.42 C323.81,132.97 322.45,134.18 322.39,135.10 C322.15,138.36 315.58,146.87 311.57,149.10 C309.33,150.35 305.45,152.81 302.94,154.56 C300.44,156.31 297.29,158.08 295.94,158.49 C294.60,158.90 292.60,160.01 291.50,160.96 C287.81,164.16 273.61,173.00 272.16,173.00 C270.71,173.00 267.42,174.80 258.50,180.50 C255.75,182.26 250.12,185.31 246.00,187.28 C241.88,189.25 236.35,192.29 233.72,194.04 C228.59,197.46 222.95,199.21 220.98,197.99 C220.03,197.40 220.03,196.41 221.01,193.37 C221.69,191.24 222.80,188.82 223.47,188.00 C225.30,185.75 228.12,178.00 227.48,176.96 C227.17,176.47 227.62,174.70 228.48,173.03 C229.35,171.36 229.81,170.00 229.51,170.00 C228.64,170.00 221.67,181.30 221.67,182.71 C221.67,181.19 228.77,169.83 230.38,168.77 C231.00,168.36 231.12,168.02 230.65,168.02 C229.30,167.99 233.30,161.81 245.81,144.58 C252.04,135.99 257.26,129.09 262.32,122.84 C262.43,122.82 262.61,122.74 262.85,122.60 C264.55,121.54 264.25,123.07 262.33,125.19 C260.74,126.95 260.78,127.02 263.08,126.59 C264.41,126.35 265.84,126.12 266.25,126.07 C266.66,126.03 268.68,124.50 270.75,122.66 C272.81,120.82 277.88,117.00 282.00,114.16 C296.35,104.29 302.52,99.83 305.00,97.52 C306.38,96.24 309.75,94.06 312.50,92.69 C315.25,91.31 321.01,88.34 325.31,86.09 C329.60,83.84 333.70,82.00 334.40,82.00 C336.34,82.00 338.52,79.04 340.50,73.75 C341.47,71.14 342.58,69.00 342.95,69.00 C343.16,69.00 343.55,68.21 343.98,66.99 C341.84,74.80 339.41,84.21 337.02,94.09 C334.40,104.86 331.64,114.97 330.88,116.55 C329.20,120.06 328.70,120.31 307.50,128.61 C289.82,135.52 275.49,141.84 276.13,142.44 C276.33,142.63 282.35,141.25 289.50,139.37 C296.65,137.49 303.51,136.13 304.75,136.34 C305.99,136.55 307.00,136.28 307.00,135.74 C307.00,135.21 307.90,135.00 309.00,135.29 C310.10,135.58 311.00,135.35 311.00,134.79 C311.00,134.23 312.33,133.97 313.98,134.21 C315.61,134.45 317.07,134.34 317.23,133.97 C317.39,133.55 322.19,132.69 325.00,132.42 ZM 89.25 235.34 C87.55,234.65 87.51,216.89 89.20,215.20 C87.88,216.52 87.56,228.75 88.79,230.70 C89.21,231.36 90.67,232.32 92.03,232.82 C93.47,233.36 95.47,233.38 96.82,232.87 C98.09,232.39 101.06,232.00 103.42,232.00 L 107.71 232.00 L 108.28 223.76 C108.55,219.78 108.55,217.26 108.25,215.91 C109.71,220.39 109.43,234.62 107.42,235.39 C105.55,236.11 91.06,236.07 89.25,235.34 ZM 147.85 202.87 L 148.05 214.03 L 145.46 215.01 C144.04,215.56 137.30,216.00 130.49,216.00 C126.90,216.00 124.34,215.99 122.47,215.91 C124.12,215.86 126.34,215.73 129.39,215.53 C141.43,214.76 146.50,212.84 147.54,208.67 C147.71,208.00 147.82,205.79 147.85,202.87 ZM 275.19 107.91 C275.03,110.05 268.98,117.11 267.78,116.37 C267.76,116.35 267.75,116.34 267.73,116.33 C270.15,113.50 272.60,110.73 275.19,107.91 ZM 308.42 75.70 C296.25,86.25 280.00,101.92 280.00,103.58 C280.00,105.13 276.76,107.89 275.71,107.34 C278.14,104.70 280.70,102.00 283.45,99.16 C290.40,91.97 300.41,82.63 308.42,75.70 ZM 267.35 116.77 C267.95,118.14 265.13,122.20 264.00,121.50 C263.85,121.41 263.68,121.37 263.50,121.39 C264.78,119.82 266.06,118.29 267.35,116.77 ZM 261.96 129.16 C260.82,131.40 260.85,131.42 262.57,129.77 C263.57,128.82 264.11,127.77 263.77,127.44 C263.44,127.10 262.62,127.88 261.96,129.16 ZM 318.03 153.07 C322.55,143.07 326.85,133.01 326.66,132.34 C326.88,132.35 327.00,132.39 327.00,132.45 C327.00,133.24 322.59,143.18 318.03,153.07 ZM 349.21 49.64 C350.01,46.99 350.39,45.06 350.10,45.00 C350.13,45.00 350.16,45.00 350.18,45.00 C350.62,45.00 350.33,46.69 349.54,48.75 C349.44,49.02 349.33,49.32 349.21,49.64 ZM 91.36 214.54 C95.72,213.83 105.10,213.72 107.42,214.61 C107.50,214.64 107.58,214.69 107.65,214.76 C106.01,213.77 95.93,213.80 91.36,214.54 ZM 185.35 238.88 C189.24,227.52 194.58,213.81 199.16,204.10 C194.63,213.72 189.25,227.49 185.35,238.88 ZM 181.81 262.21 C180.81,260.98 180.00,259.52 180.00,258.50 C180.00,258.47 180.00,258.45 180.00,258.42 C180.03,259.47 180.83,260.96 181.81,262.21 ZM 185.86 263.10 C185.73,263.66 185.54,264.13 185.32,264.34 C185.18,264.49 184.98,264.54 184.74,264.50 C184.89,264.51 185.03,264.48 185.15,264.41 C185.44,264.23 185.70,263.72 185.86,263.10 ZM 116.56 213.78 C116.18,213.24 115.89,212.56 115.67,211.57 C115.90,212.57 116.21,213.27 116.61,213.85 C116.59,213.83 116.57,213.80 116.56,213.78 Z" fill="rgba(3,119,196,1)"/>
<path d="M 278.82 190.99 C276.19,191.56 273.43,192.17 270.61,192.81 C263.42,194.42 262.86,194.72 264.30,196.16 C265.74,197.60 265.64,197.97 263.14,200.37 C261.63,201.82 259.94,203.00 259.38,203.00 C258.83,203.00 257.13,204.30 255.60,205.89 C253.82,207.76 249.56,209.95 243.66,212.05 C238.62,213.84 234.27,215.61 234.00,215.98 C233.60,216.51 224.43,219.33 214.02,222.11 C211.42,222.80 211.89,218.87 215.87,206.50 C218.58,198.06 219.43,194.12 218.72,193.22 C218.03,192.35 218.08,191.07 218.87,189.22 C221.70,182.59 216.58,191.01 210.78,202.50 C209.59,204.85 208.46,207.13 207.41,209.30 C212.86,197.84 219.04,186.00 220.07,186.00 C220.64,186.00 220.84,185.55 220.50,185.00 C220.16,184.45 220.28,184.00 220.77,184.00 C221.27,184.00 221.67,183.42 221.67,182.71 C221.67,181.30 228.64,170.00 229.51,170.00 C229.81,170.00 229.35,171.36 228.48,173.03 C227.62,174.70 227.17,176.47 227.48,176.96 C228.12,178.00 225.30,185.75 223.47,188.00 C222.80,188.82 221.69,191.24 221.01,193.37 C220.03,196.41 220.03,197.40 220.98,197.99 C222.95,199.21 228.59,197.46 233.72,194.04 C236.35,192.29 241.88,189.25 246.00,187.28 C250.12,185.31 255.75,182.26 258.50,180.50 C267.42,174.80 270.71,173.00 272.16,173.00 C273.61,173.00 287.81,164.16 291.50,160.96 C292.60,160.01 294.60,158.90 295.94,158.49 C297.29,158.08 300.44,156.31 302.94,154.56 C305.45,152.81 309.33,150.35 311.57,149.10 C315.58,146.87 322.15,138.36 322.39,135.10 C322.49,133.64 325.80,131.47 326.64,132.31 C327.34,133.00 310.04,171.33 308.10,173.40 C307.01,174.55 303.16,176.35 299.54,177.38 C295.92,178.41 292.72,179.65 292.42,180.13 C292.12,180.61 290.80,181.00 289.47,181.00 C288.14,181.00 284.68,182.07 281.78,183.38 C274.29,186.75 258.36,193.39 252.69,195.52 C249.84,196.59 248.36,197.61 249.06,198.03 C250.39,198.86 254.22,198.09 255.06,196.83 C255.50,196.17 260.49,194.92 278.82,190.99 ZM 168.20 204.80 C168.86,205.46 170.66,206.00 172.21,206.00 C175.04,206.00 188.78,199.72 193.87,196.09 C195.38,195.02 198.39,193.42 200.56,192.54 C203.30,191.42 204.71,190.16 207.28,185.93 C205.97,188.32 205.00,190.26 205.00,190.66 C205.00,191.23 202.37,197.28 199.16,204.10 C195.38,212.12 191.08,222.86 187.51,232.76 C190.73,223.10 194.15,213.67 195.84,210.27 C199.33,203.26 203.03,194.70 202.70,194.37 C202.36,194.02 200.46,197.90 190.32,219.70 C188.84,222.88 187.05,225.17 185.70,225.61 C184.70,225.93 178.04,226.16 169.88,226.19 C169.96,226.13 170.00,226.07 170.00,226.00 C170.00,225.45 171.60,225.00 173.55,225.00 L 177.10 225.00 L 174.56 221.66 C173.16,219.83 172.31,218.03 172.67,217.66 C173.04,217.30 172.86,217.00 172.29,217.00 C170.94,217.00 167.45,208.84 165.40,200.92 C165.61,201.39 165.84,201.60 166.07,201.45 C166.58,201.14 167.00,201.49 167.00,202.24 C167.00,202.99 167.54,204.14 168.20,204.80 ZM 162.12 305.52 C164.18,303.17 166.09,301.99 167.85,301.98 C169.85,301.97 170.14,301.74 169.05,301.05 C168.25,300.55 167.16,300.40 166.63,300.73 C166.03,301.10 165.98,300.60 166.51,299.41 C166.97,298.36 168.70,293.45 170.35,288.50 C172.00,283.55 173.72,279.35 174.18,279.16 C174.64,278.98 174.76,278.41 174.44,277.91 C173.48,276.35 176.78,273.92 179.21,274.39 C182.85,275.09 191.00,279.00 191.00,280.04 C191.00,280.57 189.17,286.28 186.92,292.75 C184.68,299.21 182.39,306.08 181.82,308.00 C180.43,312.79 178.47,314.73 174.58,315.18 L 171.29 315.56 L 173.03 311.69 C173.98,309.56 174.50,306.84 174.19,305.66 C173.67,303.73 173.54,303.83 172.97,306.50 C172.62,308.15 171.57,310.96 170.64,312.75 C169.71,314.54 169.27,316.00 169.66,316.00 C169.27,316.00 169.64,314.67 170.47,313.05 C175.27,303.77 168.79,297.92 162.12,305.52 ZM 160.00 229.04 C152.03,230.14 141.74,230.12 140.00,229.00 C139.00,228.35 142.96,228.07 152.00,228.16 C162.70,228.26 164.36,228.44 160.00,229.04 ZM 153.91 226.15 C144.56,226.21 139.12,226.51 136.52,227.13 C139.53,226.29 145.91,225.91 153.91,226.15 ZM 165.14 180.42 C165.61,177.99 166.24,175.64 167.04,173.50 C167.69,171.77 168.65,169.62 169.79,167.33 C167.72,171.83 166.09,176.36 165.14,180.42 ZM 298.25 187.13 C295.90,187.47 290.82,188.45 284.43,189.80 C285.73,189.52 287.09,189.23 288.50,188.93 C293.42,187.89 296.52,187.19 298.25,187.13 ZM 297.71 193.31 C299.12,190.58 299.91,188.58 299.92,187.63 C300.36,188.41 299.42,190.17 297.71,193.31 ZM 218.00 168.50 C218.00,169.32 217.58,170.00 217.07,170.00 C216.76,170.00 216.37,170.36 216.03,170.92 C216.35,170.36 216.71,170.00 217.02,170.00 C217.56,170.00 218.00,169.32 218.00,168.50 ZM 134.64 228.46 C134.64,228.50 134.66,228.55 134.67,228.59 C134.95,229.32 134.75,229.92 134.22,229.99 C134.75,229.92 134.95,229.31 134.67,228.57 C134.65,228.54 134.64,228.50 134.64,228.46 Z" fill="rgba(35,87,129,1)"/>
<path d="M 224.07 159.28 C224.38,158.26 225.74,156.01 227.36,153.89 C229.96,150.48 230.48,149.13 229.69,147.87 C228.95,146.70 229.10,145.29 230.21,142.87 C231.07,141.02 232.30,137.70 232.96,135.50 C234.50,130.32 236.93,125.28 239.75,121.41 C240.99,119.70 242.00,117.55 242.00,116.62 C242.00,113.76 245.95,106.98 248.29,105.84 C249.51,105.24 252.52,102.36 255.00,99.42 C257.48,96.49 264.10,89.28 269.73,83.39 C275.36,77.51 280.21,71.98 280.51,71.10 C281.01,69.68 287.49,64.20 291.88,61.50 C292.77,60.95 294.85,59.56 296.50,58.40 C298.15,57.25 301.19,55.75 303.25,55.07 C307.61,53.65 308.27,52.67 304.25,53.60 C304.10,53.63 303.95,53.67 303.78,53.71 C305.45,53.26 306.64,53.00 307.14,53.00 C308.23,53.00 309.96,52.55 310.98,52.01 C312.44,51.23 347.19,45.00 350.09,45.00 C350.48,45.00 349.78,48.04 348.54,51.75 C347.29,55.46 345.68,60.86 344.95,63.75 C344.22,66.64 343.32,69.00 342.95,69.00 C342.58,69.00 341.47,71.14 340.50,73.75 C338.52,79.04 336.34,82.00 334.40,82.00 C333.70,82.00 329.60,83.84 325.31,86.09 C321.01,88.34 315.25,91.31 312.50,92.69 C309.75,94.06 306.38,96.24 305.00,97.52 C302.52,99.83 296.35,104.29 282.00,114.16 C277.88,117.00 272.81,120.82 270.75,122.66 C268.68,124.50 266.66,126.03 266.25,126.07 C265.84,126.12 264.41,126.35 263.08,126.59 C260.78,127.02 260.74,126.95 262.33,125.19 C264.25,123.07 264.55,121.54 262.85,122.60 C262.12,123.04 261.96,122.87 262.41,122.14 C262.81,121.49 263.53,121.21 264.00,121.50 C265.15,122.21 268.08,117.94 267.30,116.68 C266.97,116.14 267.18,115.99 267.78,116.37 C269.04,117.15 275.67,109.30 275.17,107.62 C274.98,107.00 275.17,106.84 275.59,107.25 C276.47,108.14 280.00,105.20 280.00,103.58 C280.00,101.44 307.06,75.96 317.50,68.27 C319.15,67.06 320.05,66.05 319.50,66.04 C318.22,66.01 299.05,80.28 287.44,89.91 C277.41,98.22 251.60,123.84 245.54,131.50 C243.37,134.25 240.67,137.43 239.54,138.56 C238.42,139.70 236.82,141.67 236.00,142.94 C235.18,144.21 234.03,145.75 233.45,146.37 C230.02,150.07 224.73,157.40 224.07,159.28 ZM 116.64 213.90 C115.33,212.02 115.00,209.00 115.00,198.80 C115.00,190.95 114.86,186.96 116.79,184.97 C118.91,182.78 123.54,183.02 133.62,183.22 L 147.50 183.50 L 147.79 195.00 C147.95,201.32 147.84,207.48 147.54,208.67 C146.50,212.84 141.43,214.76 129.39,215.53 C118.50,216.23 118.25,216.19 116.64,213.90 ZM 92.03 232.82 C90.67,232.32 89.21,231.36 88.79,230.70 C87.56,228.75 87.88,216.52 89.20,215.20 C90.52,213.88 105.71,213.53 107.67,214.78 C108.49,215.30 108.67,218.00 108.28,223.76 L 107.71 232.00 L 103.42 232.00 C101.06,232.00 98.09,232.39 96.82,232.87 C95.47,233.38 93.47,233.36 92.03,232.82 ZM 261.96 129.16 C262.62,127.88 263.44,127.10 263.77,127.44 C264.11,127.77 263.57,128.82 262.57,129.77 C260.85,131.42 260.82,131.40 261.96,129.16 ZM 294.74 56.46 C287.66,58.79 278.91,61.90 274.30,63.83 C269.36,65.90 264.25,68.44 259.97,70.88 C264.25,68.44 269.36,65.90 274.30,63.82 C279.33,61.71 287.68,58.75 294.74,56.46 Z" fill="rgba(16,182,230,1)"/>
<path d="M 144.84 361.33 C144.76,358.12 144.75,354.83 144.82,354.00 C145.11,350.80 141.59,326.00 140.84,326.00 C140.41,326.00 140.32,324.65 140.65,323.00 C141.05,321.00 140.85,320.00 140.05,320.00 C139.23,320.00 139.05,319.04 139.50,317.00 C139.92,315.09 139.76,314.00 139.06,314.00 C138.39,314.00 138.21,313.03 138.59,311.50 C138.99,309.90 138.80,309.00 138.04,309.00 C137.32,309.00 137.11,308.23 137.50,307.00 C137.89,305.77 137.68,305.00 136.96,305.00 C136.27,305.00 136.05,304.31 136.43,303.33 C136.78,302.41 136.58,301.36 135.98,300.99 C134.32,299.96 135.98,294.82 138.14,294.25 C139.16,293.99 140.00,293.36 140.00,292.85 C140.00,292.35 140.64,291.69 141.41,291.39 C142.80,290.86 155.30,278.98 155.50,278.00 C156.01,275.48 157.32,273.00 158.13,273.00 C158.67,273.00 158.86,272.59 158.55,272.09 C158.24,271.58 158.55,270.98 159.24,270.75 C160.23,270.42 160.20,269.97 159.13,268.66 C158.37,267.75 158.15,266.99 158.63,266.98 C159.11,266.98 158.86,266.56 158.07,266.06 C156.61,265.14 155.99,263.25 155.84,259.25 C155.79,258.01 155.41,257.00 154.99,257.00 C154.57,257.00 154.01,256.16 153.75,255.14 C153.35,253.63 151.99,253.19 146.38,252.77 C142.60,252.48 138.22,251.65 136.66,250.92 C133.92,249.64 133.84,249.41 134.48,244.30 C134.92,240.78 134.78,239.00 134.07,239.00 C133.47,239.00 133.00,237.03 133.00,234.50 C133.00,231.88 133.46,230.00 134.11,230.00 C134.72,230.00 134.97,229.37 134.67,228.59 C133.91,226.60 141.38,225.99 164.50,226.17 C174.95,226.25 184.49,226.00 185.70,225.61 C187.05,225.17 188.84,222.88 190.32,219.70 C200.46,197.90 202.36,194.02 202.70,194.37 C203.03,194.70 199.33,203.26 195.84,210.27 C192.11,217.76 180.00,254.61 180.00,258.49 C180.00,260.82 184.21,265.45 185.32,264.34 C185.70,263.97 186.00,262.84 186.00,261.83 C186.00,260.83 186.50,260.00 187.11,260.00 C187.72,260.00 187.95,259.33 187.64,258.50 C187.32,257.67 187.41,257.00 187.82,257.00 C188.66,257.00 192.65,245.96 192.25,244.75 C192.11,244.34 192.50,244.00 193.11,244.00 C193.72,244.00 193.95,243.32 193.64,242.50 C193.32,241.68 193.48,241.00 194.00,241.00 C194.52,241.00 194.70,240.38 194.41,239.63 C194.12,238.87 194.51,237.63 195.27,236.87 C196.04,236.11 196.47,234.92 196.25,234.24 C196.02,233.56 196.35,233.00 196.98,233.00 C197.60,233.00 197.84,232.55 197.50,232.00 C197.16,231.45 197.43,231.00 198.11,231.00 C198.78,231.00 199.07,230.73 198.74,230.41 C197.97,229.64 203.19,217.53 210.78,202.50 C216.58,191.01 221.70,182.59 218.87,189.22 C218.08,191.07 218.03,192.35 218.72,193.22 C219.43,194.12 218.58,198.06 215.87,206.50 C211.89,218.87 211.42,222.80 214.02,222.11 C224.43,219.33 233.60,216.51 234.00,215.98 C234.27,215.61 238.62,213.84 243.66,212.05 C249.56,209.95 253.82,207.76 255.60,205.89 C257.13,204.30 258.83,203.00 259.38,203.00 C259.94,203.00 261.63,201.82 263.14,200.37 C265.64,197.97 265.74,197.60 264.30,196.16 C262.86,194.72 263.42,194.42 270.61,192.81 C284.91,189.59 297.79,187.00 299.48,187.00 C301.69,187.00 295.33,198.75 285.68,212.50 C278.41,222.86 263.16,239.00 260.65,239.00 C259.86,239.00 258.97,239.63 258.68,240.39 C258.39,241.15 256.09,242.56 253.57,243.52 C251.06,244.49 249.00,245.59 249.00,245.98 C249.00,246.36 247.09,247.29 244.75,248.03 C242.41,248.77 239.61,249.97 238.53,250.69 C237.44,251.41 235.71,252.00 234.68,252.00 C233.65,252.00 231.38,252.66 229.65,253.47 C227.92,254.28 223.84,255.62 220.60,256.45 C214.29,258.07 212.48,259.00 215.58,259.01 C216.64,259.01 218.75,259.67 220.28,260.46 C221.81,261.26 223.72,261.66 224.53,261.35 C225.34,261.04 226.00,261.23 226.00,261.78 C226.00,262.32 228.29,262.77 231.08,262.77 C237.29,262.77 239.48,264.37 235.65,266.11 C234.19,266.78 233.00,267.63 233.00,268.00 C233.00,268.37 231.09,269.25 228.75,269.95 C220.75,272.34 217.47,274.34 213.66,279.17 C210.96,282.59 209.14,284.00 207.40,284.00 C205.78,284.00 204.67,284.76 204.11,286.25 C202.58,290.34 202.05,299.38 202.81,308.30 C203.22,313.13 203.32,317.49 203.02,317.97 C202.72,318.45 199.34,321.10 195.49,323.86 C191.65,326.62 187.58,329.80 186.46,330.94 C185.35,332.07 184.17,333.00 183.86,333.00 C182.94,333.00 165.00,351.06 165.00,351.98 C165.00,352.44 163.74,353.88 162.19,355.18 C160.65,356.48 159.11,358.27 158.77,359.17 C158.10,360.91 151.21,366.54 150.55,365.88 C149.89,365.23 152.42,358.00 153.30,358.00 C153.75,358.00 153.87,357.61 153.58,357.12 C152.90,356.03 155.97,346.73 157.29,345.86 C157.82,345.51 157.95,344.72 157.57,344.11 C157.19,343.50 157.41,343.00 158.05,343.00 C158.69,343.00 158.95,342.33 158.64,341.50 C158.32,340.67 158.53,340.00 159.09,340.00 C159.66,340.00 159.85,339.57 159.53,339.05 C158.77,337.83 164.66,322.48 166.64,320.50 C167.47,319.67 167.77,318.99 167.32,318.97 C166.87,318.95 167.37,318.28 168.44,317.47 C169.51,316.66 170.06,316.00 169.67,316.00 C169.27,316.00 169.71,314.54 170.64,312.75 C171.57,310.96 172.62,308.15 172.97,306.50 C173.54,303.83 173.67,303.73 174.19,305.66 C174.50,306.84 173.98,309.56 173.03,311.69 L 171.29 315.56 L 174.58 315.18 C178.47,314.73 180.43,312.79 181.82,308.00 C182.39,306.08 184.68,299.21 186.92,292.75 C189.17,286.28 191.00,280.57 191.00,280.04 C191.00,279.00 182.85,275.09 179.21,274.39 C176.78,273.92 173.48,276.35 174.44,277.91 C174.76,278.41 174.64,278.98 174.18,279.16 C173.72,279.35 172.00,283.55 170.35,288.50 C168.70,293.45 166.97,298.36 166.51,299.41 C165.98,300.60 166.03,301.10 166.63,300.73 C167.16,300.40 168.25,300.55 169.05,301.05 C170.14,301.74 169.85,301.97 167.85,301.98 C166.09,301.99 164.18,303.17 162.12,305.52 C159.06,309.00 159.05,309.07 160.57,312.89 C162.07,316.64 162.00,317.13 157.90,330.62 C155.59,338.26 152.29,349.42 150.57,355.43 C146.95,368.11 145.08,370.04 144.84,361.33 ZM 160.00 229.04 C164.36,228.44 162.70,228.26 152.00,228.16 C142.96,228.07 139.00,228.35 140.00,229.00 C141.74,230.12 152.03,230.14 160.00,229.04 Z" fill="rgba(11,38,84,1)"/>
<path d="M 224.80 157.72 C225.91,154.78 225.85,154.78 222.96,155.36 C220.17,155.92 215.17,154.70 214.02,153.19 C212.19,150.77 202.71,144.03 197.59,141.50 C192.33,138.91 191.54,138.16 191.78,136.00 C192.15,132.63 199.46,121.79 206.64,113.95 C209.86,110.44 211.32,108.47 209.87,109.58 C209.24,110.06 208.54,110.68 207.78,111.40 C208.69,110.43 209.60,109.49 210.51,108.57 C218.84,100.19 237.27,84.00 238.48,84.00 C238.76,84.00 239.00,86.47 239.00,89.49 C239.00,92.50 239.44,96.89 239.98,99.24 C240.53,101.58 241.28,104.85 241.66,106.50 C242.21,108.87 242.52,107.81 243.15,101.52 C244.28,90.23 247.50,80.27 251.12,76.89 C254.80,73.45 264.87,67.78 274.30,63.83 C281.59,60.78 299.21,54.76 304.25,53.60 C308.27,52.67 307.61,53.65 303.25,55.07 C301.19,55.75 298.15,57.25 296.50,58.40 C294.85,59.56 292.77,60.95 291.88,61.50 C287.49,64.20 281.01,69.68 280.51,71.10 C280.21,71.98 275.36,77.51 269.73,83.39 C264.10,89.28 257.48,96.49 255.00,99.42 C252.52,102.36 249.51,105.24 248.29,105.84 C245.95,106.98 242.00,113.76 242.00,116.62 C242.00,117.55 240.99,119.70 239.75,121.41 C236.93,125.28 234.50,130.32 232.96,135.50 C232.30,137.70 231.07,141.02 230.21,142.87 C229.10,145.29 228.95,146.70 229.69,147.87 C230.48,149.13 229.96,150.48 227.36,153.89 C226.34,155.23 225.42,156.62 224.80,157.72 ZM 222.00 162.50 C222.00,161.68 222.35,161.00 222.78,161.00 C223.06,161.00 223.54,160.40 224.01,159.50 C224.00,159.55 224.00,159.60 224.00,159.64 C224.00,160.39 223.55,161.00 223.00,161.00 C222.45,161.00 222.00,161.68 222.00,162.50 ZM 193.70 128.75 C191.48,132.07 189.78,135.02 189.14,136.90 C188.14,139.89 187.75,143.74 187.92,148.05 C187.75,143.74 188.14,139.89 189.14,136.90 C189.79,134.95 191.43,132.08 193.70,128.75 Z" fill="rgba(76,214,204,1)"/>
<path d="M 168.20 204.80 C167.54,204.14 167.00,202.99 167.00,202.24 C167.00,201.49 166.58,201.14 166.07,201.45 C164.74,202.28 163.63,191.77 164.34,184.99 C165.32,175.61 171.53,161.59 178.91,152.05 L 180.81 149.60 L 181.99 154.05 C183.91,161.31 196.26,184.08 197.57,182.77 C197.81,182.52 196.49,178.98 194.63,174.91 C188.52,161.56 186.22,145.60 189.14,136.90 C191.15,130.96 203.87,114.19 209.87,109.58 C211.32,108.47 209.86,110.44 206.64,113.95 C199.46,121.79 192.15,132.63 191.78,136.00 C191.54,138.16 192.33,138.91 197.59,141.50 C202.71,144.03 212.19,150.77 214.02,153.19 C215.17,154.70 220.17,155.92 222.96,155.36 C225.90,154.77 225.91,154.78 224.74,157.88 C224.09,159.60 223.21,161.00 222.78,161.00 C222.35,161.00 222.00,161.68 222.00,162.50 C222.00,163.32 221.55,164.00 221.00,164.00 C220.45,164.00 220.00,164.68 220.00,165.50 C220.00,166.32 219.55,167.00 219.00,167.00 C218.45,167.00 218.00,167.68 218.00,168.50 C218.00,169.32 217.56,170.00 217.02,170.00 C216.48,170.00 215.76,171.12 215.41,172.50 C215.07,173.88 214.49,175.00 214.14,175.00 C213.79,175.00 211.48,178.59 209.00,182.97 C205.23,189.64 203.86,191.19 200.56,192.54 C198.39,193.42 195.38,195.02 193.87,196.09 C188.78,199.72 175.04,206.00 172.21,206.00 C170.66,206.00 168.86,205.46 168.20,204.80 ZM 79.67 189.33 C78.46,188.12 78.92,170.48 80.20,169.20 C81.45,167.95 97.47,167.48 100.42,168.61 C101.70,169.10 102.00,170.95 102.00,178.41 C102.00,184.22 101.56,188.04 100.80,188.80 C99.52,190.08 80.88,190.55 79.67,189.33 ZM 110.25 163.34 C109.36,162.98 109.00,159.84 109.00,152.53 C109.00,140.48 108.39,141.04 121.64,141.01 C128.15,141.00 129.91,141.32 130.39,142.58 C131.52,145.53 131.05,161.55 129.80,162.80 C128.62,163.98 112.92,164.42 110.25,163.34 Z" fill="rgba(89,203,113,1)"/>
</g>
</svg>