<svg xmlns="http://www.w3.org/2000/svg" viewBox="235 237 695 288" preserveAspectRatio="xMinYMid meet">
<g>
<path d="M 760.00 451.91 C756.42,451.45 752.49,450.83 751.25,450.52 L 749.00 449.96 L 749.00 336.00 L 753.75 335.79 C756.36,335.67 761.42,335.48 765.00,335.36 C767.16,335.28 769.40,335.17 771.09,335.05 C769.78,335.30 768.02,335.53 766.50,335.63 C764.30,335.77 759.91,336.19 756.75,336.56 L 751.00 337.25 L 751.00 448.93 L 753.23 450.12 C754.45,450.78 757.94,451.63 760.98,452.02 C761.01,452.03 761.04,452.03 761.07,452.04 C760.69,452.00 760.33,451.96 760.00,451.91 ZM 776.50 436.18 L 774.50 435.50 L 774.20 418.00 C773.90,400.55 773.99,395.07 775.97,392.55 L 776.23 414.24 L 776.50 436.18 ZM 773.77 334.78 C775.45,334.62 775.52,336.15 775.77,355.71 C775.98,372.12 776.12,375.89 777.10,376.36 C774.74,375.88 773.90,368.35 774.20,351.26 C774.41,339.39 774.45,335.70 773.77,334.78 ZM 891.79 402.75 C891.06,403.63 887.30,403.98 879.13,403.92 C872.73,403.88 866.94,403.62 866.25,403.34 C865.99,403.23 865.75,402.98 865.55,402.64 L 878.75 402.38 L 892.21 402.11 C892.09,402.34 891.95,402.55 891.79,402.75 ZM 596.74 389.65 C596.90,389.51 597.00,389.33 597.00,389.13 C597.00,388.65 599.17,387.97 601.83,387.62 C605.98,387.07 613.47,388.60 618.93,391.00 C614.58,389.37 602.90,388.42 597.77,389.38 C597.44,389.45 597.09,389.54 596.74,389.65 ZM 666.57 385.75 C665.12,388.42 665.08,388.32 665.04,381.86 C665.01,376.50 664.66,375.07 663.25,374.48 C661.63,373.81 657.72,373.43 654.97,373.47 C655.98,373.37 657.20,373.30 658.50,373.27 L 665.00 373.12 L 665.04 380.81 C665.08,388.20 665.14,388.39 666.57,385.75 ZM 589.62 394.46 C591.94,391.96 594.41,390.00 595.71,390.00 C595.76,390.00 595.80,390.00 595.85,390.00 C593.81,390.88 591.58,392.51 589.62,394.46 ZM 883.29 386.69 C882.63,386.54 881.89,386.42 881.05,386.32 C877.59,385.91 874.34,386.70 871.68,388.34 C875.11,386.18 879.39,385.46 883.29,386.69 ZM 892.71 398.30 C892.71,398.24 892.71,398.17 892.72,398.11 C892.86,399.27 892.81,400.35 892.55,401.27 ZM 787.44 388.68 C791.33,388.48 794.93,389.08 796.36,390.50 C794.99,389.14 791.29,388.53 787.44,388.68 ZM 801.96 451.92 C799.25,452.55 790.57,452.85 781.54,452.82 C790.56,452.83 799.35,452.52 801.96,451.92 ZM 623.27 391.96 C624.13,391.00 624.96,388.46 626.52,383.13 C624.94,388.52 624.19,391.06 623.27,391.96 ZM 791.62 436.52 C787.71,437.68 785.08,438.09 782.36,437.76 C785.11,438.04 787.85,437.64 791.62,436.52 ZM 777.25 391.41 C777.70,391.11 778.21,390.86 778.79,390.60 C778.83,390.58 778.86,390.57 778.90,390.55 L 777.25 391.41 ZM 777.92 376.27 C778.86,375.89 780.09,374.99 780.73,374.19 C780.07,375.02 778.82,375.93 777.92,376.27 ZM 620.07 391.52 C620.28,391.63 620.49,391.73 620.70,391.84 C620.50,391.74 620.29,391.64 620.07,391.52 Z" fill="rgba(0,0,0,1)"/>
<path d="M 433.51 322.96 C431.66,323.40 431.49,323.68 432.90,323.81 C434.76,324.00 436.88,324.74 437.61,325.47 C438.70,326.56 438.17,327.36 434.49,330.14 C423.34,338.58 408.01,348.47 399.77,352.55 C395.98,354.42 391.66,356.77 390.19,357.76 C388.71,358.75 385.92,360.34 384.00,361.29 C382.08,362.24 377.20,365.04 373.16,367.51 C366.22,371.76 363.00,372.94 363.00,371.24 C363.00,370.83 364.14,368.34 365.53,365.73 C367.59,361.86 370.44,352.00 369.50,352.00 C369.33,352.00 368.87,352.54 368.21,353.51 C373.20,345.26 378.22,337.65 382.03,332.70 C384.49,329.50 388.30,324.29 390.50,321.11 C392.31,318.49 394.71,315.39 397.49,312.04 C389.39,322.44 376.08,343.05 376.68,344.61 C377.43,346.56 378.75,346.34 379.96,344.07 C380.53,343.00 381.89,341.85 382.97,341.51 C384.06,341.16 387.70,339.00 391.05,336.69 C394.41,334.39 398.85,331.38 400.93,330.00 C408.31,325.11 413.12,321.44 417.78,317.15 C420.38,314.76 425.05,311.50 428.18,309.92 C431.30,308.34 434.13,306.60 434.47,306.05 C434.81,305.50 438.08,303.37 441.74,301.33 C454.23,294.34 457.03,289.76 464.52,264.04 C464.55,263.92 464.59,263.80 464.62,263.68 C462.25,272.15 459.37,283.08 457.50,291.00 C454.59,303.31 453.30,307.07 451.23,309.25 C449.80,310.76 448.21,312.00 447.69,312.00 C445.54,312.00 407.54,327.88 408.18,328.51 C408.37,328.70 412.79,327.73 418.01,326.35 C421.42,325.44 427.55,324.13 433.51,322.96 ZM 347.87 373.80 C351.13,367.06 354.53,360.68 357.82,355.25 C360.56,350.71 362.66,347.00 362.47,347.00 C362.29,347.00 359.88,350.20 357.12,354.12 C354.36,358.03 351.15,361.91 349.98,362.73 C347.91,364.18 347.91,364.10 350.23,359.36 C351.54,356.69 353.92,349.21 355.53,342.75 C357.14,336.29 358.79,331.00 359.21,331.00 C359.62,331.00 360.69,332.12 361.59,333.50 C364.87,338.50 367.52,337.08 378.98,324.24 C383.01,319.73 386.75,315.63 390.34,311.83 C388.02,314.40 385.71,317.08 383.35,319.91 C369.23,336.79 357.24,355.07 347.87,373.80 ZM 326.95 443.99 C326.10,444.00 324.79,444.56 324.05,445.25 C322.96,446.27 322.81,446.19 323.28,444.85 C323.60,443.95 324.41,441.36 325.09,439.10 C325.76,436.85 326.71,435.00 327.20,435.00 C327.68,435.00 329.94,435.95 332.22,437.11 L 336.37 439.23 L 332.43 441.61 C330.27,442.92 327.80,443.99 326.95,443.99 ZM 449.65 320.36 C449.57,320.28 445.00,320.95 439.50,321.85 C439.08,321.92 438.68,321.98 438.29,322.05 C444.42,320.90 449.43,320.10 449.65,320.34 C449.66,320.34 449.66,320.35 449.65,320.36 ZM 433.00 275.73 C426.74,280.96 417.46,290.00 409.10,298.89 C417.18,290.22 426.02,281.55 433.00,275.73 ZM 335.36 425.00 C335.27,425.27 335.16,425.53 335.06,425.80 C334.20,427.99 333.87,428.70 333.15,428.37 C333.69,428.38 334.16,427.49 335.19,425.37 C335.25,425.25 335.31,425.12 335.36,425.00 ZM 338.59 416.37 C338.88,417.13 338.53,418.36 337.81,419.12 C337.22,419.74 336.70,420.57 336.50,421.15 C336.36,420.84 336.83,420.03 337.61,419.25 C338.44,418.42 338.88,417.13 338.59,416.37 ZM 330.81 418.83 C331.11,417.53 331.51,416.02 332.00,414.23 C332.74,411.58 333.62,408.74 334.63,405.76 C333.85,408.13 333.12,410.50 332.43,412.86 C331.73,415.28 331.19,417.23 330.81,418.83 ZM 331.72 427.24 C330.52,426.10 329.99,424.94 330.15,422.72 C330.02,424.83 330.55,425.95 331.69,427.21 C331.70,427.22 331.71,427.23 331.72,427.24 Z" fill="rgba(29,121,190,1)"/>
<path d="M 411.98 367.69 C408.35,368.54 405.35,369.42 404.72,369.98 C404.29,370.36 405.30,370.46 406.96,370.22 C408.62,369.98 410.72,370.06 411.64,370.41 C413.10,370.98 413.01,371.36 410.90,373.63 C408.36,376.35 400.02,381.00 397.67,381.00 C396.90,381.00 395.13,382.14 393.74,383.54 C391.09,386.18 374.47,393.20 365.06,395.66 C362.06,396.44 359.09,397.51 358.44,398.05 C357.65,398.71 356.83,398.50 355.93,397.41 C355.71,397.16 355.53,396.95 355.39,396.71 C354.64,395.42 355.24,393.32 359.55,377.81 C360.27,375.22 360.54,371.93 360.15,370.47 C359.84,369.32 359.50,369.02 358.58,370.35 C363.88,360.33 368.81,352.00 369.50,352.00 C370.44,352.00 367.59,361.86 365.53,365.73 C364.14,368.34 363.00,370.83 363.00,371.24 C363.00,372.94 366.22,371.76 373.16,367.51 C377.20,365.04 382.08,362.24 384.00,361.29 C385.92,360.34 388.71,358.75 390.19,357.76 C391.66,356.77 395.98,354.42 399.77,352.55 C408.01,348.47 423.34,338.58 434.49,330.14 C438.17,327.36 438.70,326.56 437.61,325.47 C436.88,324.74 434.76,324.00 432.90,323.81 C430.55,323.58 432.60,322.97 439.50,321.85 C445.00,320.95 449.57,320.28 449.65,320.36 C449.74,320.44 446.36,328.33 442.15,337.89 L 434.50 355.29 L 420.50 359.98 C406.19,364.78 398.28,367.76 396.50,369.03 C395.95,369.42 393.11,370.52 390.19,371.47 C383.38,373.69 384.10,374.58 391.14,372.65 C397.55,370.89 405.28,369.08 411.98,367.69 ZM 319.47 377.33 C321.57,379.43 326.48,378.09 335.40,372.99 C343.53,368.34 347.49,365.21 350.50,358.77 C350.41,358.99 350.32,359.18 350.23,359.36 C347.91,364.10 347.91,364.18 349.98,362.73 C351.15,361.91 354.36,358.03 357.12,354.12 C359.88,350.20 362.29,347.00 362.47,347.00 C362.66,347.00 360.56,350.71 357.82,355.25 C350.61,367.16 342.82,383.70 337.26,398.44 C339.52,392.10 341.89,386.12 343.67,382.59 C344.53,380.89 344.77,379.95 344.22,380.50 C342.87,381.83 339.01,389.20 338.98,390.49 C338.97,391.04 338.09,392.62 337.03,394.00 C335.26,396.31 334.44,396.51 326.31,396.63 C323.35,396.68 318.62,396.78 313.82,396.90 C317.26,396.71 320.23,396.47 321.80,396.25 L 327.09 395.50 L 324.54 392.05 C320.85,387.06 318.82,381.95 318.00,375.12 C318.37,376.00 318.86,376.72 319.47,377.33 ZM 326.95 443.99 C327.80,443.99 330.27,442.92 332.43,441.61 L 336.37 439.23 L 332.96 437.49 C336.00,438.85 339.00,440.33 339.00,440.60 C339.00,442.96 329.55,467.61 328.29,468.53 C325.78,470.37 325.00,469.47 325.17,464.94 C325.26,462.77 325.03,460.70 324.66,460.33 C324.30,459.97 324.00,460.60 324.00,461.75 C324.00,462.60 322.99,465.24 321.56,468.26 C323.56,463.94 323.96,462.16 323.32,461.15 C322.67,460.12 321.57,459.58 320.33,459.49 C321.69,459.43 322.58,459.12 322.35,458.75 C322.09,458.34 321.23,458.00 320.44,458.00 C319.65,458.00 319.00,457.74 319.00,457.42 C319.00,456.85 322.65,446.04 324.92,439.66 C324.28,441.77 323.57,444.02 323.28,444.85 C322.81,446.19 322.96,446.27 324.05,445.25 C324.79,444.56 326.10,444.00 326.95,443.99 ZM 314.00 399.00 C314.00,399.60 310.33,399.95 304.75,399.88 C298.35,399.80 296.42,399.53 298.50,399.00 C303.03,397.85 314.00,397.85 314.00,399.00 ZM 420.41 371.40 C418.32,372.20 418.00,372.16 418.00,371.11 C418.00,369.86 420.82,368.90 421.46,369.94 C421.75,370.41 421.28,371.06 420.41,371.40 ZM 317.52 361.54 L 317.50 357.22 L 322.32 347.70 C323.10,346.16 323.91,344.63 324.69,343.22 C323.97,344.53 323.23,345.93 322.52,347.34 C319.24,353.85 318.08,356.98 317.52,361.54 ZM 314.35 484.77 C310.41,495.23 306.39,507.61 306.22,510.42 C306.34,507.62 310.33,495.32 314.35,484.77 ZM 315.15 461.66 C316.35,460.27 317.63,459.62 319.31,459.52 C317.85,459.69 316.30,460.42 315.15,461.66 ZM 330.29 424.96 C330.11,424.47 330.00,423.99 330.00,423.57 C330.00,422.96 330.15,421.99 330.41,420.75 C330.07,422.64 330.03,423.94 330.29,424.96 ZM 326.07 436.51 C326.38,435.67 326.59,435.15 326.66,435.07 C326.69,435.04 326.80,435.05 326.99,435.09 C326.73,435.29 326.40,435.80 326.07,436.51 ZM 306.39 511.00 C306.95,510.97 309.36,508.70 311.92,505.84 C309.35,508.73 306.93,511.00 306.40,511.00 C306.40,511.00 306.40,511.00 306.39,511.00 ZM 340.41 410.48 C339.99,411.72 339.75,412.62 339.72,413.11 C339.64,414.15 339.24,415.00 338.82,415.00 C339.24,415.00 339.64,414.12 339.72,413.05 C339.76,412.58 340.00,411.70 340.41,410.48 Z" fill="rgba(18,76,130,1)"/>
<path d="M 359.43 331.07 C360.14,329.95 360.98,329.07 362.14,328.00 C364.22,326.08 369.80,320.23 374.55,315.00 C379.29,309.77 384.37,304.87 385.84,304.11 C387.30,303.35 389.63,301.47 391.01,299.95 C392.38,298.43 396.43,294.89 400.01,292.08 C403.58,289.27 409.90,283.72 414.05,279.74 C424.19,270.01 429.67,265.06 434.72,261.06 C437.04,259.22 438.67,257.27 438.34,256.74 C437.64,255.61 433.94,255.95 428.82,257.20 C430.50,256.66 431.72,256.23 432.11,256.02 C435.32,254.30 466.79,248.75 468.25,249.65 C468.68,249.92 468.83,250.46 468.59,250.86 C468.35,251.25 466.51,257.18 464.52,264.04 C457.03,289.76 454.23,294.34 441.74,301.33 C438.08,303.37 434.81,305.50 434.47,306.05 C434.13,306.60 431.30,308.34 428.18,309.92 C425.05,311.50 420.38,314.76 417.78,317.15 C413.12,321.44 408.31,325.11 400.93,330.00 C398.85,331.38 394.41,334.39 391.05,336.69 C387.70,339.00 384.06,341.16 382.97,341.51 C381.89,341.85 380.53,343.00 379.96,344.07 C378.75,346.34 377.43,346.56 376.68,344.61 C376.01,342.87 392.58,317.54 400.00,308.95 C409.82,297.57 424.31,282.99 433.00,275.73 C443.12,267.27 445.22,265.33 443.00,266.52 C441.51,267.31 432.87,273.40 430.00,275.69 C410.03,291.55 397.54,303.43 378.98,324.24 C367.52,337.08 364.87,338.50 361.59,333.50 C360.82,332.33 359.93,331.33 359.43,331.07 ZM 278.69 387.55 C276.36,385.22 276.19,364.92 278.48,363.02 C280.66,361.21 300.51,360.35 302.48,361.98 C303.68,362.98 304.00,365.61 303.98,374.37 C303.98,380.49 303.56,386.14 303.07,386.92 C302.41,387.96 299.22,388.46 291.28,388.79 C281.99,389.18 280.14,388.99 278.69,387.55 ZM 256.25 404.34 C255.40,403.99 255.00,401.34 255.00,396.02 C255.00,387.10 255.09,387.00 263.50,387.00 C271.91,387.00 272.00,387.10 272.00,396.00 C272.00,402.18 271.67,403.91 270.42,404.39 C268.56,405.11 258.06,405.07 256.25,404.34 ZM 350.69 358.37 C352.24,354.81 353.56,350.20 355.23,343.69 C356.19,339.95 356.90,337.31 357.55,335.33 C356.94,337.36 356.23,339.94 355.53,342.75 C353.80,349.69 352.39,354.59 350.69,358.37 ZM 419.42 259.96 C413.67,261.87 407.45,264.30 401.98,266.78 C407.70,264.12 414.12,261.56 419.42,259.96 Z" fill="rgba(5,153,219,1)"/>
<path d="M 760.98 452.02 C757.94,451.63 754.45,450.78 753.23,450.12 L 751.00 448.93 L 751.00 337.25 L 756.75 336.56 C759.91,336.19 764.30,335.77 766.50,335.63 C768.70,335.49 771.40,335.07 772.50,334.70 C774.46,334.04 774.49,334.40 774.20,351.26 C773.86,370.08 774.92,377.30 777.86,376.29 C778.76,375.98 780.05,375.03 780.73,374.19 C781.41,373.36 782.76,372.59 783.73,372.49 C784.70,372.39 787.50,371.75 789.93,371.07 C792.37,370.38 795.75,370.13 797.43,370.50 C799.12,370.88 802.24,371.36 804.38,371.57 C806.51,371.79 808.87,372.48 809.63,373.11 C810.38,373.73 811.00,373.95 811.00,373.60 C811.00,372.72 815.54,375.76 819.66,379.41 C829.51,388.13 833.61,407.25 829.44,425.00 C826.28,438.49 815.82,448.73 801.96,451.92 C797.00,453.07 769.57,453.13 760.98,452.02 ZM 301.53 510.87 C301.02,508.71 300.04,496.27 299.76,488.25 C299.70,486.46 299.31,485.00 298.89,485.00 C298.47,485.00 298.38,483.42 298.69,481.50 C299.05,479.28 298.86,478.00 298.16,478.00 C297.56,478.00 297.32,477.32 297.64,476.49 C297.96,475.66 297.68,474.32 297.03,473.53 C296.37,472.74 296.06,471.72 296.34,471.26 C296.62,470.80 295.99,467.31 294.93,463.50 C292.80,455.82 293.02,453.88 296.29,451.70 C300.62,448.81 309.87,440.20 309.27,439.60 C308.94,439.27 309.19,439.00 309.83,439.00 C310.48,439.00 310.91,438.66 310.80,438.25 C310.41,436.78 312.15,433.00 313.22,433.00 C313.82,433.00 313.57,432.18 312.65,431.17 C311.74,430.17 311.00,428.68 311.00,427.87 C311.00,427.06 310.59,425.97 310.08,425.45 C309.58,424.93 309.02,423.38 308.83,422.00 C308.53,419.75 307.91,419.43 302.50,418.77 C292.20,417.51 291.88,417.14 292.21,406.56 L 292.50 397.50 L 305.00 397.13 C311.88,396.93 321.46,396.70 326.31,396.63 C334.44,396.51 335.26,396.31 337.03,394.00 C338.09,392.62 338.97,391.04 338.98,390.49 C339.01,389.20 342.87,381.83 344.22,380.50 C344.77,379.95 344.53,380.89 343.67,382.59 C338.93,392.00 330.00,418.77 330.00,423.57 C330.00,424.74 330.85,426.46 331.88,427.40 C333.69,429.03 333.83,428.95 335.06,425.80 C335.77,423.99 336.38,422.05 336.43,421.50 C336.47,420.95 337.09,419.88 337.81,419.12 C338.53,418.36 338.88,417.13 338.59,416.37 C338.30,415.62 338.40,415.00 338.82,415.00 C339.23,415.00 339.64,414.15 339.72,413.11 C339.92,410.47 346.05,395.80 353.30,380.66 C358.73,369.30 359.52,368.13 360.15,370.47 C360.54,371.93 360.27,375.22 359.55,377.81 C355.24,393.32 354.64,395.42 355.39,396.71 C355.53,396.95 355.71,397.16 355.93,397.41 C356.83,398.50 357.65,398.71 358.44,398.05 C359.09,397.51 362.06,396.44 365.06,395.66 C374.47,393.20 391.09,386.18 393.74,383.54 C395.13,382.14 396.90,381.00 397.67,381.00 C400.02,381.00 408.36,376.35 410.90,373.63 C413.01,371.36 413.10,370.98 411.64,370.41 C410.72,370.06 408.62,369.98 406.96,370.22 C405.30,370.46 404.29,370.36 404.72,369.98 C406.49,368.43 426.68,364.35 427.68,365.34 C428.58,366.25 419.59,381.32 412.90,390.13 C400.63,406.26 388.85,414.07 367.50,420.21 C357.09,423.21 357.09,423.21 362.00,424.47 C364.48,425.10 367.22,425.95 368.10,426.36 C368.98,426.77 370.11,427.02 370.60,426.93 C371.10,426.84 372.95,426.82 374.72,426.88 C377.05,426.97 377.79,427.39 377.40,428.41 C376.85,429.83 369.75,433.27 364.79,434.52 C363.29,434.89 360.28,437.14 358.09,439.52 C355.89,441.90 353.06,443.99 351.80,444.17 C349.82,444.45 349.38,445.32 348.62,450.36 C348.10,453.79 348.12,459.47 348.66,464.08 L 349.57 471.94 L 342.58 476.72 C335.54,481.53 321.76,494.57 312.44,505.25 C309.68,508.41 306.95,511.00 306.38,511.00 C304.78,511.00 315.44,479.98 319.98,471.42 C322.19,467.24 324.00,462.89 324.00,461.75 C324.00,460.60 324.30,459.97 324.66,460.33 C325.03,460.70 325.26,462.77 325.17,464.94 C325.00,469.47 325.78,470.37 328.29,468.53 C329.55,467.61 339.00,442.96 339.00,440.60 C339.00,440.06 326.99,434.68 326.66,435.07 C326.20,435.61 319.00,456.63 319.00,457.42 C319.00,457.74 319.65,458.00 320.44,458.00 C321.23,458.00 322.09,458.34 322.35,458.75 C322.60,459.17 321.45,459.51 319.78,459.50 C317.64,459.50 316.14,460.31 314.69,462.23 C312.90,464.62 312.80,465.26 313.95,467.41 C314.14,467.76 314.30,468.05 314.43,468.36 C315.28,470.43 314.44,473.21 307.03,498.45 C304.78,506.12 302.74,512.59 302.52,512.82 C302.29,513.05 301.84,512.17 301.53,510.87 ZM 485.00 451.52 C471.18,448.31 463.65,444.84 463.43,441.57 C463.39,440.98 463.91,439.07 464.59,437.33 C465.27,435.59 465.57,433.90 465.25,433.58 C464.93,433.26 465.24,433.00 465.94,433.00 C466.66,433.00 466.96,432.35 466.64,431.50 C466.32,430.67 466.53,430.00 467.09,430.00 C467.66,430.00 467.84,429.55 467.50,429.00 C467.16,428.45 467.41,428.00 468.05,428.00 C468.69,428.00 468.95,427.33 468.64,426.50 C468.32,425.67 468.30,425.00 468.59,425.00 C469.05,425.00 476.09,428.09 482.50,431.10 C483.60,431.62 485.51,432.23 486.75,432.46 C487.99,432.70 489.44,433.15 489.97,433.48 C490.49,433.80 494.88,434.31 499.71,434.60 C508.04,435.11 508.79,434.98 514.00,432.19 C517.03,430.57 519.39,428.74 519.25,428.12 C519.11,427.50 519.48,427.00 520.06,427.00 C520.64,427.00 520.84,426.55 520.50,426.00 C520.16,425.45 520.36,425.00 520.94,425.00 C521.52,425.00 522.00,423.88 522.00,422.50 C522.00,421.12 521.56,420.00 521.03,420.00 C520.50,420.00 520.29,419.42 520.56,418.71 C520.83,417.99 519.24,416.11 516.96,414.46 C514.71,412.83 512.17,410.86 511.32,410.07 C510.48,409.28 506.34,407.42 502.14,405.94 C491.67,402.24 487.59,400.61 487.00,399.89 C486.73,399.56 484.39,398.16 481.80,396.80 C479.22,395.43 475.50,392.33 473.54,389.91 C471.59,387.48 469.57,384.99 469.05,384.36 C468.54,383.73 468.39,382.94 468.73,382.61 C469.06,382.27 468.92,382.00 468.42,382.00 C467.91,382.00 467.40,380.54 467.27,378.76 C467.15,376.97 466.58,375.36 466.02,375.17 C464.62,374.71 464.70,366.00 466.11,366.00 C466.79,366.00 466.98,365.04 466.59,363.50 C466.21,361.99 466.39,361.00 467.04,361.00 C467.63,361.00 467.84,360.55 467.50,360.00 C467.16,359.45 467.39,359.00 468.00,359.00 C468.61,359.00 468.85,358.57 468.53,358.05 C468.20,357.52 468.74,356.16 469.72,355.01 C470.70,353.87 471.52,352.61 471.53,352.22 C471.58,351.16 479.05,344.00 480.10,344.00 C480.60,344.00 481.00,343.63 481.00,343.19 C481.00,342.03 490.64,337.97 494.91,337.33 C500.80,336.44 524.15,336.43 524.70,337.32 C524.97,337.77 525.79,337.91 526.50,337.64 C527.22,337.36 528.11,337.44 528.47,337.81 C528.84,338.17 529.67,338.50 530.32,338.53 C533.10,338.66 540.00,341.16 540.00,342.04 C540.00,342.57 540.63,343.00 541.39,343.00 C543.63,343.00 544.06,345.73 542.56,350.28 C541.78,352.60 540.65,356.41 540.04,358.75 C539.42,361.09 538.55,363.00 538.09,363.00 C537.63,363.00 535.12,361.81 532.52,360.35 C523.58,355.36 508.58,353.58 500.98,356.62 C496.32,358.49 494.00,362.13 494.00,367.57 C494.00,370.52 494.73,371.90 497.75,374.70 C501.76,378.40 506.99,381.55 507.02,380.28 C507.02,379.85 507.37,380.04 507.79,380.70 C508.21,381.35 510.04,382.15 511.85,382.47 C513.67,382.79 516.17,383.72 517.41,384.53 C518.65,385.34 519.96,385.71 520.33,385.34 C520.70,384.97 521.00,385.24 521.00,385.94 C521.00,386.66 521.65,386.96 522.50,386.64 C523.33,386.32 524.00,386.53 524.00,387.09 C524.00,387.66 524.45,387.84 525.00,387.50 C525.55,387.16 526.00,387.36 526.00,387.94 C526.00,388.52 526.34,388.91 526.75,388.80 C528.11,388.44 532.00,390.12 532.00,391.07 C532.00,391.58 532.67,392.00 533.50,392.00 C534.33,392.00 535.00,392.45 535.00,393.00 C535.00,393.55 535.64,394.00 536.42,394.00 C538.05,394.00 544.43,401.09 546.69,405.40 C549.06,409.93 549.56,422.56 547.63,429.19 C544.44,440.16 532.52,449.58 518.92,451.89 C510.34,453.34 491.98,453.14 485.00,451.52 ZM 868.00 452.28 C864.80,451.71 853.61,446.80 853.17,445.78 C852.98,445.35 852.28,445.00 851.61,445.00 C850.27,445.00 844.20,439.09 843.91,437.50 C843.51,435.31 841.63,432.00 840.78,432.00 C840.29,432.00 840.16,431.55 840.50,431.00 C840.84,430.45 840.74,430.00 840.27,430.00 C839.45,430.00 839.04,427.82 839.00,423.25 C838.99,422.01 838.65,421.00 838.24,421.00 C837.83,421.00 837.48,417.40 837.45,413.00 C837.43,408.60 837.81,405.00 838.32,405.00 C838.82,405.00 839.03,403.65 838.79,402.00 C838.54,400.35 838.76,399.00 839.26,399.00 C839.76,399.00 839.98,398.44 839.75,397.76 C839.53,397.08 839.94,395.92 840.68,395.18 C841.42,394.44 841.76,393.43 841.45,392.92 C841.14,392.41 841.39,392.00 842.00,392.00 C842.61,392.00 842.84,391.55 842.50,391.00 C842.16,390.45 842.39,390.00 843.00,390.00 C843.61,390.00 843.87,389.60 843.56,389.10 C843.26,388.61 843.69,387.95 844.52,387.63 C845.34,387.32 845.93,386.71 845.81,386.28 C845.53,385.21 852.61,378.00 853.93,378.00 C854.52,378.00 855.00,377.63 855.00,377.19 C855.00,376.17 862.06,372.73 862.75,373.42 C863.03,373.69 864.64,373.20 866.33,372.33 C869.33,370.78 872.48,370.78 892.75,372.33 C893.99,372.42 895.00,372.89 895.00,373.36 C895.00,373.83 895.67,373.95 896.50,373.64 C897.33,373.32 898.00,373.50 898.00,374.03 C898.00,374.56 898.41,374.89 898.91,374.75 C901.82,373.95 910.57,382.81 913.77,389.80 C916.72,396.26 918.24,414.11 915.96,415.53 C915.23,415.98 903.36,416.38 889.57,416.42 L 864.50 416.50 L 864.85 419.49 C865.68,426.50 870.81,432.72 877.25,434.54 C877.66,434.65 878.34,434.86 878.75,434.99 C879.16,435.13 879.84,435.18 880.25,435.12 C880.66,435.05 881.00,435.40 881.00,435.89 C881.00,437.08 897.60,436.50 901.75,435.18 C903.54,434.61 905.71,433.43 906.57,432.57 C907.44,431.71 908.72,431.00 909.43,431.00 C911.08,431.00 916.21,442.30 915.45,444.26 C914.68,446.28 905.61,450.53 899.20,451.88 C894.14,452.95 873.25,453.22 868.00,452.28 ZM 584.00 451.16 C576.63,449.10 571.00,446.42 571.00,444.97 C571.00,444.44 570.49,444.00 569.86,444.00 C568.58,444.00 563.45,438.85 563.74,437.86 C563.84,437.50 562.93,436.13 561.71,434.80 C560.50,433.48 559.34,431.29 559.15,429.95 C558.96,428.60 558.43,427.36 557.96,427.19 C557.49,427.01 557.36,426.22 557.66,425.44 C557.97,424.65 557.69,424.00 557.05,424.00 C556.41,424.00 556.13,423.60 556.43,423.12 C556.73,422.63 556.56,418.93 556.05,414.89 C555.41,409.77 555.46,407.34 556.21,406.87 C556.80,406.50 557.04,405.26 556.74,404.10 C556.43,402.95 556.63,402.00 557.16,402.00 C557.70,402.00 557.85,401.10 557.50,400.00 C557.11,398.77 557.32,398.00 558.04,398.00 C558.69,398.00 558.95,397.33 558.64,396.50 C558.32,395.67 558.53,395.00 559.09,395.00 C559.66,395.00 559.84,394.55 559.50,394.00 C559.16,393.45 559.39,393.00 560.00,393.00 C560.61,393.00 560.87,392.60 560.56,392.10 C560.26,391.61 560.75,390.93 561.65,390.58 C562.55,390.24 563.02,389.68 562.69,389.35 C562.36,389.02 563.08,387.92 564.29,386.91 C565.51,385.90 566.18,385.05 565.80,385.03 C564.77,384.98 569.92,380.00 571.00,380.00 C571.49,380.00 572.26,379.38 572.70,378.63 C573.64,377.03 581.96,372.63 582.69,373.35 C582.96,373.63 584.97,373.22 587.16,372.45 C589.34,371.67 591.44,371.11 591.81,371.19 C592.19,371.28 595.09,370.99 598.26,370.56 C601.87,370.06 605.05,370.16 606.76,370.82 C608.27,371.41 612.42,372.11 615.98,372.39 C619.55,372.68 622.63,373.38 622.82,373.96 C623.01,374.54 623.52,374.80 623.94,374.54 C624.36,374.28 625.53,374.67 626.55,375.41 C628.34,376.72 628.34,376.94 626.52,383.13 C623.79,392.47 623.30,393.23 620.93,391.96 C615.45,389.03 606.51,387.00 601.83,387.62 C599.17,387.97 597.00,388.65 597.00,389.13 C597.00,389.61 596.42,390.00 595.71,390.00 C593.17,390.00 586.07,397.56 584.53,401.91 C582.58,407.43 582.56,418.01 584.48,422.62 C586.93,428.47 594.81,435.11 598.25,434.20 C598.66,434.09 599.00,434.51 599.00,435.12 C599.00,435.84 600.09,436.03 602.00,435.65 C603.69,435.31 605.00,435.48 605.00,436.02 C605.00,436.56 605.90,437.00 607.00,437.00 C608.10,437.00 609.00,436.50 609.00,435.89 C609.00,435.16 610.21,435.00 612.50,435.43 C614.80,435.86 616.00,435.71 616.00,434.98 C616.00,434.32 616.82,434.12 618.00,434.50 C619.10,434.85 620.00,434.73 620.00,434.23 C620.00,433.73 621.24,432.70 622.75,431.94 C626.79,429.92 627.58,429.64 626.76,430.52 C626.35,430.96 626.38,431.81 626.83,432.41 C627.27,433.01 628.48,436.07 629.51,439.21 C631.31,444.70 631.32,444.99 629.59,446.90 C626.14,450.71 619.38,452.26 604.50,452.63 C593.20,452.92 589.25,452.64 584.00,451.16 ZM 641.24 412.78 L 641.50 374.50 L 646.75 374.72 C649.64,374.84 652.00,374.54 652.00,374.06 C652.00,373.07 660.62,373.39 663.25,374.48 C664.66,375.07 665.01,376.50 665.04,381.86 C665.08,388.32 665.12,388.42 666.57,385.75 C667.39,384.24 668.57,383.00 669.20,383.00 C669.82,383.00 670.09,382.76 669.80,382.47 C668.77,381.44 675.85,375.37 680.16,373.59 C682.54,372.60 685.28,371.39 686.24,370.90 C689.05,369.45 693.37,370.07 697.77,372.56 C698.21,372.81 694.93,392.40 694.36,392.98 C694.07,393.26 690.76,393.58 687.00,393.68 C677.65,393.93 671.69,397.04 668.15,403.50 C666.81,405.94 666.41,410.63 666.00,428.50 L 665.50 450.50 L 653.24 450.78 L 640.98 451.06 ZM 707.41 451.08 C706.47,450.13 707.04,378.00 707.99,378.00 C708.53,378.00 708.87,376.99 708.74,375.75 C708.52,373.73 708.88,373.53 712.25,373.83 C714.31,374.01 716.00,373.74 716.00,373.24 C716.00,372.74 719.94,372.41 724.75,372.52 L 733.50 372.71 L 733.50 450.50 L 720.66 451.00 C713.60,451.27 707.64,451.31 707.41,451.08 ZM 791.62 436.52 C796.29,435.13 801.56,430.90 800.25,429.59 C799.93,429.26 800.22,429.00 800.89,429.00 C801.57,429.00 801.84,428.55 801.50,428.00 C801.16,427.45 801.39,427.00 802.00,427.00 C802.61,427.00 802.84,426.55 802.50,426.00 C802.16,425.45 802.41,425.00 803.06,425.00 C803.74,425.00 804.01,424.16 803.71,423.00 C803.42,421.90 803.50,421.00 803.88,421.00 C804.26,421.00 804.57,416.95 804.57,412.00 C804.57,407.05 804.23,403.00 803.82,403.00 C803.40,403.00 803.32,402.34 803.63,401.53 C803.94,400.71 803.47,399.33 802.59,398.45 C801.70,397.56 801.21,396.47 801.49,396.02 C801.76,395.58 801.29,394.94 800.43,394.61 C799.57,394.28 799.15,393.56 799.50,393.01 C799.84,392.45 799.61,392.00 798.99,392.00 C798.37,392.00 797.18,391.33 796.36,390.50 C793.84,387.98 784.50,388.04 778.79,390.60 C774.09,392.71 773.80,394.47 774.20,418.00 L 774.50 435.50 L 778.00 436.69 C782.73,438.31 785.73,438.27 791.62,436.52 ZM 716.13 361.92 C712.25,360.37 708.52,356.67 708.15,354.00 C707.96,352.62 707.40,351.35 706.90,351.17 C705.61,350.69 705.79,347.00 707.11,347.00 C707.72,347.00 707.97,346.35 707.66,345.56 C706.99,343.81 710.59,339.00 712.57,339.00 C713.36,339.00 714.00,338.52 714.00,337.93 C714.00,337.32 714.85,337.14 716.00,337.50 C717.15,337.86 718.00,337.68 718.00,337.07 C718.00,336.48 719.35,336.00 721.00,336.00 C722.65,336.00 724.00,336.50 724.00,337.12 C724.00,337.74 724.88,338.00 726.00,337.71 C727.10,337.42 728.00,337.67 728.00,338.26 C728.00,338.85 728.28,339.05 728.62,338.71 C728.96,338.37 729.77,338.64 730.41,339.30 C735.91,344.94 736.66,352.62 732.20,357.50 C727.55,362.58 721.76,364.18 716.13,361.92 ZM 891.79 402.75 C893.85,400.25 892.64,394.48 889.24,390.61 C880.91,381.13 865.00,387.58 865.00,400.44 C865.00,401.75 865.56,403.06 866.25,403.34 C866.94,403.62 872.73,403.88 879.13,403.92 C887.30,403.98 891.06,403.63 891.79,402.75 ZM 314.00 399.00 C314.00,397.85 303.03,397.85 298.50,399.00 C296.42,399.53 298.35,399.80 304.75,399.88 C310.33,399.95 314.00,399.60 314.00,399.00 ZM 420.41 371.40 C421.28,371.06 421.75,370.41 421.46,369.94 C420.82,368.90 418.00,369.86 418.00,371.11 C418.00,372.16 418.32,372.20 420.41,371.40 Z" fill="rgba(13,37,82,1)"/>
<path d="M 356.16 340.13 L 358.26 331.97 L 356.13 327.73 C354.97,325.40 353.55,321.64 353.00,319.37 C352.44,317.09 351.31,314.68 350.49,313.99 C347.86,311.81 348.88,308.54 354.11,302.45 L 357.12 298.94 C365.86,290.49 375.74,281.63 376.94,281.21 C377.39,281.04 378.02,283.74 378.33,287.21 C378.64,290.67 379.28,295.30 379.75,297.50 L 380.61 301.50 L 381.37 295.00 C382.56,284.72 384.91,277.89 388.34,274.69 C396.73,266.85 435.90,252.79 438.34,256.74 C438.67,257.27 437.04,259.22 434.72,261.06 C429.67,265.06 424.19,270.01 414.05,279.74 C409.90,283.72 403.58,289.27 400.01,292.08 C396.43,294.89 392.38,298.43 391.01,299.95 C389.63,301.47 387.30,303.35 385.84,304.11 C384.37,304.87 379.29,309.77 374.55,315.00 C369.80,320.23 364.22,326.08 362.14,328.00 C359.13,330.79 358.25,332.28 356.16,340.13 Z" fill="rgba(63,245,250,1)"/>
<path d="M 319.47 377.33 C317.24,375.10 316.67,371.49 317.31,363.64 C317.79,357.82 318.76,354.80 322.52,347.34 C325.06,342.30 327.95,337.45 328.94,336.55 C330.64,335.01 330.80,335.16 331.84,339.21 C332.44,341.57 334.99,347.10 337.51,351.50 C342.88,360.90 346.42,364.94 342.65,357.38 C339.49,351.04 336.00,338.00 336.01,332.56 C336.02,323.56 340.48,315.77 353.01,302.88 L 359.21 296.50 L 354.11 302.45 C348.88,308.54 347.86,311.81 350.49,313.99 C351.31,314.68 352.44,317.09 353.00,319.37 C353.55,321.64 354.97,325.40 356.13,327.73 L 358.26 331.97 L 355.18 343.92 C350.36,362.65 348.38,365.57 335.40,372.99 C326.48,378.09 321.57,379.43 319.47,377.33 ZM 247.43 365.69 C247.14,364.93 247.04,361.20 247.20,357.40 L 247.50 350.50 L 254.50 350.00 C265.59,349.21 265.75,349.28 266.20,355.31 C266.41,358.16 266.32,361.85 266.00,363.50 L 265.42 366.50 L 256.70 366.79 C249.97,367.01 247.85,366.76 247.43,365.69 ZM 272.67 345.33 C272.30,344.97 272.00,340.94 272.00,336.39 L 272.00 328.12 L 276.34 327.47 C278.73,327.11 282.67,327.21 285.09,327.69 L 289.50 328.56 L 289.80 335.87 C289.98,340.40 289.65,343.72 288.92,344.59 C287.71,346.05 274.01,346.68 272.67,345.33 Z" fill="rgba(121,227,95,1)"/>
</g>
</svg>